<svg xmlns="http://www.w3.org/2000/svg" viewBox="0 0 300 400" width="300" height="400" role="img" aria-label="Nook Simple Touch e-reader">
  <g fill="none" stroke="#111" stroke-width="5" stroke-linejoin="round">
    <rect x="18" y="12" width="264" height="376" rx="26"/>
    <rect x="44" y="40" width="212" height="272" rx="6"/>
    <rect x="26" y="150" width="12" height="46" rx="6"/>
    <rect x="262" y="150" width="12" height="46" rx="6"/>
    <rect x="26" y="216" width="12" height="46" rx="6"/>
    <rect x="262" y="216" width="12" height="46" rx="6"/>
    <circle cx="150" cy="350" r="22"/>
  </g>
  <g fill="#111" font-family="Georgia, serif" font-size="26" text-anchor="middle">
    <text x="150" y="360">n</text>
  </g>
  <g fill="none" stroke="#111" stroke-width="3" opacity="0.55">
    <path d="M62 92h176M62 118h176M62 144h120"/>
    <path d="M62 190h176M62 216h176M62 242h140M62 268h96"/>
  </g>
  <g fill="#111" font-family="system-ui, sans-serif" font-size="15" text-anchor="middle" opacity="0.6">
    <text x="150" y="70">6" e-ink · 800×600</text>
  </g>
</svg>
